<svg width="87" height="63" viewBox="0 0 87 63" fill="none" xmlns="http://www.w3.org/2000/svg">
<path d="M79.091 26.5263V56.3684H63.2729V26.5263H79.091ZM83.0456 19.8947H59.3183C58.2695 19.8947 57.2637 20.2441 56.522 20.8659C55.7804 21.4877 55.3638 22.3311 55.3638 23.2105V59.6842C55.3638 60.5636 55.7804 61.407 56.522 62.0288C57.2637 62.6507 58.2695 63 59.3183 63H83.0456C84.0944 63 85.1003 62.6507 85.8419 62.0288C86.5835 61.407 87.0001 60.5636 87.0001 59.6842V23.2105C87.0001 22.3311 86.5835 21.4877 85.8419 20.8659C85.1003 20.2441 84.0944 19.8947 83.0456 19.8947Z" fill="white"/>
<path d="M71.1819 0H9.88643C8.83762 0 7.83177 0.349341 7.09014 0.971172C6.34852 1.593 5.93188 2.43639 5.93188 3.31579V39.7895C5.93188 40.6689 6.34852 41.5123 7.09014 42.1341C7.83177 42.7559 8.83762 43.1053 9.88643 43.1053H47.4546V36.4737H13.841V6.63158H67.2273V13.2632H75.1364V3.31579C75.1364 2.43639 74.7198 1.593 73.9782 0.971172C73.2365 0.349341 72.2307 0 71.1819 0Z" fill="white"/>
<path d="M47.4545 49.7368V56.3684H3.95455C2.90574 56.3684 1.89988 56.019 1.15826 55.3972C0.416638 54.7754 0 53.932 0 53.0526C0 52.1732 0.416638 51.3298 1.15826 50.708C1.89988 50.0861 2.90574 49.7368 3.95455 49.7368H47.4545Z" fill="white"/>
</svg>
