<svg width="33" height="33" viewBox="0 0 33 33" fill="none" xmlns="http://www.w3.org/2000/svg">
<path d="M10.3125 2.75C13.0625 2.75 15.2625 4.4 16.0875 6.875H28.875V11H24.75V15.125H20.625V11H16.0875C15.2625 13.475 12.925 15.125 10.3125 15.125C6.875 15.125 4.125 12.375 4.125 8.9375C4.125 5.5 6.875 2.75 10.3125 2.75ZM10.3125 6.875C9.2125 6.875 8.25 7.8375 8.25 8.9375C8.25 10.0375 9.2125 11 10.3125 11C11.4125 11 12.375 10.0375 12.375 8.9375C12.375 7.8375 11.4125 6.875 10.3125 6.875ZM10.3125 17.875C13.0625 17.875 15.2625 19.525 16.0875 22H28.875V26.125H27.5V30.25H24.75V26.125H22V30.25H17.875V26.125H16.0875C15.2625 28.6 12.925 30.25 10.3125 30.25C6.875 30.25 4.125 27.5 4.125 24.0625C4.125 20.625 6.875 17.875 10.3125 17.875ZM10.3125 22C9.2125 22 8.25 22.9625 8.25 24.0625C8.25 25.1625 9.2125 26.125 10.3125 26.125C11.4125 26.125 12.375 25.1625 12.375 24.0625C12.375 22.9625 11.4125 22 10.3125 22Z" fill="black"/>
</svg>
