<svg width="78" height="78" viewBox="0 0 78 78" fill="none" xmlns="http://www.w3.org/2000/svg">
<path d="M13 68.25C12.0792 68.25 11.3078 67.938 10.686 67.314C10.0642 66.69 9.75218 65.9187 9.75001 65C9.74784 64.0813 10.0598 63.31 10.686 62.686C11.3122 62.062 12.0835 61.75 13 61.75H16.25V13C16.25 12.0792 16.562 11.3078 17.186 10.686C17.81 10.0642 18.5813 9.75217 19.5 9.75H45.5C46.4208 9.75 47.1933 10.062 47.8173 10.686C48.4413 11.31 48.7522 12.0813 48.75 13H58.5C59.4208 13 60.1933 13.312 60.8173 13.936C61.4413 14.56 61.7522 15.3313 61.75 16.25V61.75H65C65.9208 61.75 66.6933 62.062 67.3173 62.686C67.9413 63.31 68.2522 64.0813 68.25 65C68.2478 65.9187 67.9358 66.6911 67.314 67.3172C66.6922 67.9434 65.9208 68.2543 65 68.25H58.5C57.5792 68.25 56.8078 67.938 56.186 67.314C55.5642 66.69 55.2522 65.9187 55.25 65V19.5H48.75V65C48.75 65.9208 48.438 66.6932 47.814 67.3172C47.19 67.9412 46.4187 68.2522 45.5 68.25H13ZM39 39C39 38.0792 38.688 37.3078 38.064 36.686C37.44 36.0642 36.6687 35.7522 35.75 35.75C34.8313 35.7478 34.06 36.0598 33.436 36.686C32.812 37.3122 32.5 38.0835 32.5 39C32.5 39.9165 32.812 40.6889 33.436 41.3173C34.06 41.9456 34.8313 42.2565 35.75 42.25C36.6687 42.2435 37.4411 41.9315 38.0673 41.314C38.6934 40.6965 39.0043 39.9252 39 39ZM22.75 61.75H42.25V16.25H22.75V61.75Z" fill="black"/>
</svg>
