<svg width="30" height="30" viewBox="0 0 30 30" fill="none" xmlns="http://www.w3.org/2000/svg">
<path d="M15.0054 24.8587C23.8693 24.8587 30 17.6877 30 15.4521C30 13.2059 23.858 6.04607 15.0054 6.04607C6.20786 6.04607 0 13.2059 0 15.4521C0 17.6877 6.25232 24.8587 15.0054 24.8587ZM15.0054 21.6161C11.5527 21.6161 8.83071 18.8164 8.80875 15.4521C8.7975 12 11.5527 9.28928 15.0054 9.28928C18.4361 9.28928 21.1912 12 21.1912 15.4527C21.1912 18.817 18.4361 21.6166 15.0054 21.6166M15.0054 17.677C16.2337 17.677 17.2521 16.6698 17.2521 15.4527C17.2521 14.2243 16.2343 13.2177 15.0054 13.2177C13.7662 13.2177 12.7479 14.2248 12.7479 15.4527C12.7479 16.6704 13.7657 17.677 15.0054 17.677Z" fill="black"/>
</svg>
