<svg width="30" height="30" viewBox="0 0 30 30" fill="none" xmlns="http://www.w3.org/2000/svg">
<path fill-rule="evenodd" clip-rule="evenodd" d="M28.125 8.43751C28.1252 9.30966 27.9515 10.1731 27.6141 10.9773C27.2767 11.7816 26.7824 12.5105 26.16 13.1215C25.5377 13.7325 24.7998 14.2133 23.9895 14.5359C23.1791 14.8584 22.3127 15.0162 21.4407 15C19.5844 14.9644 17.5163 15.2475 16.3782 16.7119L8.63441 26.6681C8.30552 27.0912 7.89042 27.4394 7.41664 27.6897C6.94287 27.94 6.42128 28.0867 5.88648 28.12C5.35168 28.1533 4.81591 28.0725 4.31474 27.8829C3.81358 27.6933 3.35848 27.3992 2.97965 27.0203C2.60082 26.6413 2.30694 26.1861 2.11751 25.6849C1.92808 25.1836 1.84743 24.6478 1.88092 24.113C1.91441 23.5783 2.06128 23.0567 2.31177 22.583C2.56225 22.1093 2.91063 21.6944 3.33378 21.3656L13.2882 13.6219C14.7507 12.4838 15.0357 10.4156 15.0019 8.55938L15 8.43751C14.9997 7.41903 15.2364 6.41445 15.6915 5.50328C16.1465 4.59211 16.8074 3.79937 17.6218 3.18779C18.4363 2.5762 19.3818 2.16257 20.3838 1.97963C21.3857 1.79669 22.4164 1.84946 23.3944 2.13376C24.0038 2.31001 24.1257 3.06563 23.6757 3.51376L19.875 7.31626C19.7119 7.47476 19.6149 7.68913 19.6034 7.91628C19.5919 8.14343 19.6669 8.36649 19.8132 8.54063C20.3219 9.13063 20.8713 9.68001 21.4613 10.1888C21.6354 10.3351 21.8585 10.41 22.0856 10.3985C22.3128 10.387 22.5272 10.29 22.6857 10.1269L26.4863 6.32626C26.9344 5.87626 27.69 5.99813 27.8663 6.60751C28.0363 7.19001 28.1225 7.80001 28.125 8.43751ZM7.03128 24.375C7.03128 24.748 6.88312 25.1057 6.6194 25.3694C6.35568 25.6331 5.99799 25.7813 5.62503 25.7813C5.25207 25.7813 4.89439 25.6331 4.63066 25.3694C4.36694 25.1057 4.21878 24.748 4.21878 24.375C4.21878 24.002 4.36694 23.6444 4.63066 23.3806C4.89439 23.1169 5.25207 22.9688 5.62503 22.9688C5.99799 22.9688 6.35568 23.1169 6.6194 23.3806C6.88312 23.6444 7.03128 24.002 7.03128 24.375Z" fill="#00B9DB"/>
<path d="M21.5624 17.8125C22.1499 17.8125 22.723 17.76 23.2818 17.655L26.9605 21.3338C27.7064 22.0797 28.1255 23.0914 28.1255 24.1463C28.1255 25.2011 27.7064 26.2128 26.9605 26.9588C26.2146 27.7047 25.2029 28.1237 24.148 28.1237C23.0931 28.1237 22.0814 27.7047 21.3355 26.9588L16.0668 21.69L18.598 18.4388C18.6918 18.3188 18.8943 18.1425 19.3968 18.0019C19.918 17.8556 20.5949 17.7956 21.388 17.8106L21.5624 17.8125ZM9.3749 7.5L12.0861 10.2094C12.0639 10.3421 12.0344 10.4736 11.998 10.6031C11.8574 11.1056 11.6811 11.31 11.5611 11.4038L10.4174 12.2925L7.4999 9.375H4.9799C4.89256 9.375 4.80696 9.3506 4.73275 9.30455C4.65854 9.2585 4.59868 9.19263 4.5599 9.11438L2.02865 4.05188C1.98451 3.96376 1.96926 3.86397 1.98508 3.76669C2.0009 3.66941 2.04698 3.57959 2.11677 3.51L3.51365 2.11313C3.58324 2.04334 3.67306 1.99726 3.77033 1.98144C3.86761 1.96562 3.9674 1.98086 4.05552 2.025L9.11802 4.55625C9.19558 4.59555 9.26068 4.65564 9.30604 4.72981C9.3514 4.80398 9.37524 4.88931 9.3749 4.97625V7.5Z" fill="#00B9DB"/>
</svg>
