<svg width="43" height="43" viewBox="0 0 43 43" fill="none" xmlns="http://www.w3.org/2000/svg">
<path d="M37.5312 33.9688V35.75H5.46875V33.9688L9.03125 30.4062V19.7188C9.03125 14.1969 12.6472 9.33406 17.9375 7.76656V7.25C17.9375 6.30517 18.3128 5.39903 18.9809 4.73093C19.649 4.06283 20.5552 3.6875 21.5 3.6875C22.4448 3.6875 23.351 4.06283 24.0191 4.73093C24.6872 5.39903 25.0625 6.30517 25.0625 7.25V7.76656C30.3528 9.33406 33.9688 14.1969 33.9688 19.7188V30.4062L37.5312 33.9688ZM25.0625 37.5312C25.0625 38.4761 24.6872 39.3822 24.0191 40.0503C23.351 40.7184 22.4448 41.0938 21.5 41.0938C20.5552 41.0938 19.649 40.7184 18.9809 40.0503C18.3128 39.3822 17.9375 38.4761 17.9375 37.5312" fill="#0388B4"/>
</svg>
